<svg xmlns="http://www.w3.org/2000/svg" xmlns:xlink="http://www.w3.org/1999/xlink" viewBox="56 29 210 54" preserveAspectRatio="xMidYMid meet" version="1.2"><defs><clipPath id="pca_c1"><path d="M 58.265625 31.367188 L 92 31.367188 L 92 80.648438 L 58.265625 80.648438 Z M 58.265625 31.367188 "/></clipPath><clipPath id="pca_c2"><path d="M 85 31.367188 L 118.746094 31.367188 L 118.746094 80.648438 L 85 80.648438 Z M 85 31.367188 "/></clipPath></defs><g id="d85b235a12"><g style="fill:#000000;fill-opacity:1;"><g transform="translate(121.648911, 65.573351)"><path style="stroke:none" d="M 21.28125 -16.265625 C 23.019531 -14.378906 23.890625 -12.054688 23.890625 -9.296875 C 23.890625 -6.546875 23.019531 -4.21875 21.28125 -2.3125 C 19.550781 -0.40625 17.34375 0.546875 14.65625 0.546875 C 12.195312 0.546875 10.171875 -0.226562 8.578125 -1.78125 L 8.578125 9.40625 L 2.171875 9.40625 L 2.171875 -18.578125 L 8.5 -18.578125 L 8.5 -16.46875 L 8.578125 -16.46875 C 10.171875 -18.226562 12.195312 -19.109375 14.65625 -19.109375 C 17.34375 -19.109375 19.550781 -18.160156 21.28125 -16.265625 Z M 15.84375 -6.15625 C 16.675781 -6.976562 17.09375 -8.023438 17.09375 -9.296875 C 17.09375 -10.578125 16.691406 -11.625 15.890625 -12.4375 C 15.097656 -13.25 14.050781 -13.65625 12.75 -13.65625 C 11.488281 -13.65625 10.453125 -13.242188 9.640625 -12.421875 C 8.835938 -11.597656 8.4375 -10.554688 8.4375 -9.296875 C 8.4375 -8.023438 8.851562 -6.976562 9.6875 -6.15625 C 10.519531 -5.332031 11.539062 -4.921875 12.75 -4.921875 C 13.976562 -4.921875 15.007812 -5.332031 15.84375 -6.15625 Z M 15.84375 -6.15625 "/></g></g><g style="fill:#000000;fill-opacity:1;"><g transform="translate(146.375648, 65.573351)"><path style="stroke:none" d="M 12.0625 -13.859375 C 10.851562 -13.859375 9.8125 -13.410156 8.9375 -12.515625 C 8.070312 -11.628906 7.640625 -10.554688 7.640625 -9.296875 C 7.640625 -8.023438 8.070312 -6.941406 8.9375 -6.046875 C 9.8125 -5.148438 10.851562 -4.703125 12.0625 -4.703125 C 12.632812 -4.703125 13.179688 -4.773438 13.703125 -4.921875 C 14.222656 -5.066406 14.601562 -5.210938 14.84375 -5.359375 L 15.171875 -5.578125 L 17.34375 -1.125 C 17.175781 -1 16.941406 -0.84375 16.640625 -0.65625 C 16.335938 -0.476562 15.644531 -0.234375 14.5625 0.078125 C 13.488281 0.390625 12.335938 0.546875 11.109375 0.546875 C 8.378906 0.546875 5.984375 -0.410156 3.921875 -2.328125 C 1.859375 -4.253906 0.828125 -6.554688 0.828125 -9.234375 C 0.828125 -11.929688 1.859375 -14.25 3.921875 -16.1875 C 5.984375 -18.132812 8.378906 -19.109375 11.109375 -19.109375 C 12.335938 -19.109375 13.472656 -18.960938 14.515625 -18.671875 C 15.554688 -18.390625 16.289062 -18.101562 16.71875 -17.8125 L 17.34375 -17.375 L 15.171875 -13 C 14.367188 -13.570312 13.332031 -13.859375 12.0625 -13.859375 Z M 12.0625 -13.859375 "/></g></g><g style="fill:#000000;fill-opacity:1;"><g transform="translate(164.151384, 65.573351)"><path style="stroke:none" d="M 3.4375 -2.296875 C 1.695312 -4.191406 0.828125 -6.515625 0.828125 -9.265625 C 0.828125 -12.015625 1.695312 -14.34375 3.4375 -16.25 C 5.175781 -18.15625 7.382812 -19.109375 10.0625 -19.109375 C 12.519531 -19.109375 14.546875 -18.335938 16.140625 -16.796875 L 16.140625 -18.578125 L 22.546875 -18.578125 L 22.546875 0 L 16.21875 0 L 16.21875 -2.09375 L 16.140625 -2.09375 C 14.546875 -0.332031 12.519531 0.546875 10.0625 0.546875 C 7.382812 0.546875 5.175781 -0.398438 3.4375 -2.296875 Z M 8.890625 -12.421875 C 8.054688 -11.597656 7.640625 -10.546875 7.640625 -9.265625 C 7.640625 -7.984375 8.035156 -6.9375 8.828125 -6.125 C 9.628906 -5.320312 10.679688 -4.921875 11.984375 -4.921875 C 13.234375 -4.921875 14.265625 -5.332031 15.078125 -6.15625 C 15.890625 -6.976562 16.296875 -8.015625 16.296875 -9.265625 C 16.296875 -10.546875 15.878906 -11.597656 15.046875 -12.421875 C 14.210938 -13.242188 13.191406 -13.65625 11.984375 -13.65625 C 10.753906 -13.65625 9.722656 -13.242188 8.890625 -12.421875 Z M 8.890625 -12.421875 "/></g></g><g style="fill:#000000;fill-opacity:1;"><g transform="translate(188.87812, 65.573351)"><path style="stroke:none" d="M 8.21875 -18.578125 L 8.21875 -9.734375 C 8.21875 -7.898438 8.492188 -6.597656 9.046875 -5.828125 C 9.609375 -5.054688 10.550781 -4.671875 11.875 -4.671875 C 13.195312 -4.671875 14.132812 -5.054688 14.6875 -5.828125 C 15.25 -6.597656 15.53125 -7.898438 15.53125 -9.734375 L 15.53125 -18.578125 L 21.9375 -18.578125 L 21.9375 -8.1875 C 21.9375 -5.09375 21.132812 -2.863281 19.53125 -1.5 C 17.925781 -0.132812 15.375 0.546875 11.875 0.546875 C 8.375 0.546875 5.820312 -0.132812 4.21875 -1.5 C 2.613281 -2.863281 1.8125 -5.09375 1.8125 -8.1875 L 1.8125 -18.578125 Z M 8.21875 -18.578125 "/></g></g><g style="fill:#000000;fill-opacity:1;"><g transform="translate(212.627378, 65.573351)"><path style="stroke:none" d="M 3.4375 -2.296875 C 1.695312 -4.191406 0.828125 -6.515625 0.828125 -9.265625 C 0.828125 -12.015625 1.695312 -14.34375 3.4375 -16.25 C 5.175781 -18.15625 7.382812 -19.109375 10.0625 -19.109375 C 12.519531 -19.109375 14.546875 -18.335938 16.140625 -16.796875 L 16.140625 -31.140625 L 22.546875 -31.140625 L 22.546875 0 L 16.21875 0 L 16.21875 -2.09375 L 16.140625 -2.09375 C 14.546875 -0.332031 12.519531 0.546875 10.0625 0.546875 C 7.382812 0.546875 5.175781 -0.398438 3.4375 -2.296875 Z M 8.890625 -12.421875 C 8.054688 -11.597656 7.640625 -10.546875 7.640625 -9.265625 C 7.640625 -7.984375 8.035156 -6.9375 8.828125 -6.125 C 9.628906 -5.320312 10.679688 -4.921875 11.984375 -4.921875 C 13.234375 -4.921875 14.265625 -5.332031 15.078125 -6.15625 C 15.890625 -6.976562 16.296875 -8.015625 16.296875 -9.265625 C 16.296875 -10.546875 15.878906 -11.597656 15.046875 -12.421875 C 14.210938 -13.242188 13.191406 -13.65625 11.984375 -13.65625 C 10.753906 -13.65625 9.722656 -13.242188 8.890625 -12.421875 Z M 8.890625 -12.421875 "/></g></g><g style="fill:#000000;fill-opacity:1;"><g transform="translate(237.354114, 65.573351)"><path style="stroke:none" d="M 2.78125 -28.921875 C 3.53125 -29.671875 4.421875 -30.046875 5.453125 -30.046875 C 6.492188 -30.046875 7.390625 -29.671875 8.140625 -28.921875 C 8.890625 -28.171875 9.265625 -27.273438 9.265625 -26.234375 C 9.265625 -25.203125 8.890625 -24.3125 8.140625 -23.5625 C 7.390625 -22.820312 6.492188 -22.453125 5.453125 -22.453125 C 4.421875 -22.453125 3.53125 -22.820312 2.78125 -23.5625 C 2.039062 -24.3125 1.671875 -25.203125 1.671875 -26.234375 C 1.671875 -27.273438 2.039062 -28.171875 2.78125 -28.921875 Z M 2.171875 -18.578125 L 2.171875 0 L 8.578125 0 L 8.578125 -18.578125 Z M 2.171875 -18.578125 "/></g></g><g style="fill:#000000;fill-opacity:1;"><g transform="translate(248.287463, 65.573351)"><path style="stroke:none" d="M 3.265625 -18.578125 L 3.265625 -25.484375 L 9.671875 -25.484375 L 9.671875 -18.578125 L 13.578125 -18.578125 L 13.578125 -13.6875 L 9.671875 -13.6875 L 9.671875 -7.78125 C 9.671875 -6.070312 10.148438 -5.21875 11.109375 -5.21875 C 11.347656 -5.21875 11.597656 -5.265625 11.859375 -5.359375 C 12.128906 -5.453125 12.335938 -5.546875 12.484375 -5.640625 L 12.703125 -5.796875 L 14.296875 -0.609375 C 12.921875 0.160156 11.351562 0.546875 9.59375 0.546875 C 8.382812 0.546875 7.34375 0.335938 6.46875 -0.078125 C 5.601562 -0.503906 4.945312 -1.070312 4.5 -1.78125 C 4.0625 -2.5 3.742188 -3.25 3.546875 -4.03125 C 3.359375 -4.820312 3.265625 -5.660156 3.265625 -6.546875 L 3.265625 -13.6875 L 0.578125 -13.6875 L 0.578125 -18.578125 Z M 3.265625 -18.578125 "/></g></g><g clip-rule="nonzero" clip-path="url(#pca_c1)"><path style=" stroke:none;fill-rule:nonzero;fill:#000000;fill-opacity:1;" d="M 91.933594 56.007812 L 82.761719 46.851562 L 67.4375 31.558594 L 58.265625 40.714844 L 73.589844 56.007812 L 58.265625 71.300781 L 67.4375 80.453125 L 82.761719 65.160156 L 91.933594 56.007812 L 91.832031 56.007812 Z M 91.933594 56.007812 "/></g><g clip-rule="nonzero" clip-path="url(#pca_c2)"><path style=" stroke:none;fill-rule:nonzero;fill:#000000;fill-opacity:1;" d="M 118.746094 56.007812 L 109.574219 46.851562 L 94.253906 31.558594 L 85.078125 40.714844 L 100.402344 56.007812 L 85.078125 71.300781 L 94.253906 80.453125 L 109.574219 65.160156 Z M 118.746094 56.007812 "/></g></g></svg>
